<svg xmlns="http://www.w3.org/2000/svg" viewBox="0 0 98.48 53.22"><title>Fichier 1</title><g id="Calque_2" data-name="Calque 2"><g id="Layer_1" data-name="Layer 1"><path d="M86.72,14.1a13.4,13.4,0,0,0-3.15-2.48,23.39,23.39,0,0,0-2.72-1.29c-.77-.28-1.37-.49-1.78-.61l-.62-.19L76,8.87c-1.62-.38-4-.95-7.09-1.45S62,6.4,57.69,6.08c-2.17-.17-4.48-.3-6.92-.36-1.22,0-2.46,0-3.74,0s-2.59.11-3.93.2A127.75,127.75,0,0,0,26,8.16c-.76.14-1.51.32-2.26.49l-1.14.26-1.13.31A28.91,28.91,0,0,0,17,10.67a16,16,0,0,0-4.05,2.41,11.91,11.91,0,0,0-1.65,1.68,10.34,10.34,0,0,0-1.22,2A12.7,12.7,0,0,0,9,21.47c-.1,1.65,0,3.33.08,5.09s0,3.48,0,5.23c0,.87,0,1.75,0,2.63s0,1.78.08,2.53A4.61,4.61,0,0,0,10,39.06a5.72,5.72,0,0,0,1.73,1.54l.26.15.28.15.59.3c.39.19.77.38,1.17.56.8.37,1.61.72,2.43,1.07,1.63.69,3.28,1.36,4.94,2s3.34,1.22,5,1.72c.42.13.84.22,1.25.33l.6.12a2.46,2.46,0,0,0,.26,0l.13,0h.09a3.56,3.56,0,0,0,1.84-1,31.4,31.4,0,0,0,3.56-3.78c1.14-1.36,2.25-2.75,3.43-4.11l1.74-2c.58-.67,1.15-1.35,1.79-2a10.25,10.25,0,0,1,2.21-1.84,8.17,8.17,0,0,1,2.75-1A14.76,14.76,0,0,1,48.83,31h.69l.65,0c.45,0,.94.05,1.39.12a9.51,9.51,0,0,1,2.76.74,8.67,8.67,0,0,1,2.37,1.6c1.34,1.26,2.36,2.6,3.47,3.84,2.26,2.53,4.24,5.21,6.4,7.48a14.79,14.79,0,0,0,1.66,1.54,2.83,2.83,0,0,0,1.56.71l.3,0h.14l.12,0,.48-.09c.36-.09.72-.17,1.09-.28.73-.21,1.45-.44,2.17-.68,2.88-1,5.66-2.08,8.31-3.21,1.31-.57,2.61-1.14,3.81-1.76l.23-.12.2-.12.43-.26.36-.26.35-.29a4.75,4.75,0,0,0,1.08-1.38,5.17,5.17,0,0,0,.49-1.65,9.08,9.08,0,0,0,0-.91c0-.32,0-.64,0-1,0-1.29,0-2.54,0-3.77s0-2.41,0-3.57.06-2.33.1-3.4a18.7,18.7,0,0,0-.48-5.88A10.24,10.24,0,0,0,86.72,14.1ZM87,24.69c0,.52,0,1,0,1.49v7.44a5.19,5.19,0,0,1-3.19,5.17c-3.12,1.59-12.58,5.49-15,5.49-1.71,0-3.48-2.2-5.53-4.75-1-1.24-2-2.51-3.13-3.66-3.32-3.45-5.71-5.55-10.9-5.55s-7.59,2.1-10.91,5.55c-1.11,1.15-2.13,2.42-3.12,3.66-2.05,2.55-3.82,4.75-5.53,4.75-2.38,0-11.84-3.9-15-5.49a5.19,5.19,0,0,1-3.19-5.17V26.18c0-.48,0-1,0-1.49-.18-4.2-.41-9.44,10.82-12.34C34.55,9.18,49.09,9.14,49.24,9.14s14.68,0,26.93,3.21C87.4,15.25,87.17,20.49,87,24.69Z"/><path d="M95.58,19.73c0-1.79-3.85-12-17.61-15.95S49.24,0,49.24,0s-15-.13-28.74,3.78S2.9,17.94,2.9,19.73c0,0-2.9.34-2.9,1.08V40c0,2,2.23,3.57,5.26,4.38s4.18,1.08,4.18,1.08,1.35,1.69,7.83,4.12,9.16,3.25,9.44,3.3,5.73.34,8.36.34,4.32-2,6.48-5.26,5.13-7,7.69-7,5.53,3.64,7.69,7,3.84,5.26,6.47,5.26,8.08-.3,8.37-.34,3-.88,9.44-3.3S89,45.46,89,45.46s1.15-.27,4.19-1.08S98.48,42,98.48,40V20.81C98.48,20.07,95.58,19.73,95.58,19.73ZM4.51,32.31c0,.56,0,1.12,0,1.66,0,1.08-.07,2.09-.12,3-.1,1.72-.24,2.88-.24,2.88S4,38.64,3.88,36.92c0-.86-.09-1.87-.12-3,0-.54,0-1.1,0-1.66s0-1.15,0-1.72,0-1.15,0-1.72,0-1.12,0-1.66c0-1.08.07-2.09.12-2.95.1-1.73.23-2.88.23-2.88s.14,1.15.24,2.88c.05.86.09,1.87.12,2.95,0,.54,0,1.09,0,1.66s0,1.14,0,1.72S4.51,31.74,4.51,32.31ZM23.9,5c.74-.19,1.64-.44,2.69-.66L28.26,4l1.85-.36c1.3-.26,2.71-.45,4.21-.68l2.31-.29c.78-.11,1.59-.19,2.41-.25l2.51-.22c.84-.07,1.7-.09,2.57-.14s1.74-.09,2.61-.1l2.64,0h1.32c.44,0,.88,0,1.32,0l2.61.09c.43,0,.87,0,1.29.05l1.28.11,2.51.21,1.22.1,1.19.16L64.42,3c.74.11,1.48.18,2.18.32l2,.38c1.29.26,2.48.45,3.52.71l2.69.68,2.33.62-2.38-.38-2.72-.46c-.53-.1-1.09-.16-1.69-.24l-1.86-.24c-1.3-.17-2.71-.37-4.2-.49L62,3.68l-1.19-.12-1.21-.08-2.49-.14c-.84-.06-1.69-.11-2.55-.12L52,3.15l-1.3,0H46.76c-.87,0-1.74,0-2.6.07s-1.71,0-2.55.1l-2.48.15c-.41,0-.82,0-1.22.08l-1.18.1-2.31.19-2.17.24-1,.11-1,.13-1.86.24-1.68.25c-1.06.16-2,.32-2.73.45l-1.75.32-.62.13S22.41,5.42,23.9,5Zm-.51,43.8c-.79-.2-1.7-.45-2.67-.77s-2-.68-3-1.07-2-.83-2.92-1.28-1.75-.91-2.45-1.32l-.94-.6c-.28-.17-.51-.36-.7-.49l-.6-.45.68.31c.22.1.47.23.77.36l1,.45c.36.17.76.34,1.19.52s.87.36,1.33.57,1,.38,1.44.59l1.48.59,5.51,2.15c1.51.58,2.51,1,2.51,1A25.54,25.54,0,0,1,23.39,48.81Zm64.37-5.53c-.19.13-.42.32-.7.49l-.94.6c-.7.41-1.53.87-2.45,1.32s-1.91.87-2.91,1.28-2,.77-3,1.07-1.88.57-2.67.77a25.54,25.54,0,0,1-2.65.56s1-.42,2.51-1l5.51-2.15L82,45.63c.48-.21,1-.39,1.43-.59s.91-.38,1.33-.57l1.2-.52,1-.45c.3-.13.55-.26.77-.36l.68-.31S88.15,43,87.76,43.28Zm3-15.63q0,1.74,0,3.57c0,1.23,0,2.48,0,3.77v1a9.63,9.63,0,0,1,0,1.06,6,6,0,0,1-2,4l-.44.37-.48.35c-.16.12-.3.19-.45.29l-.25.15-.24.13c-1.27.68-2.57,1.27-3.9,1.87-2.67,1.18-5.45,2.32-8.39,3.37-.74.25-1.48.5-2.25.73-.39.12-.78.21-1.18.32l-.68.13a2.3,2.3,0,0,1-.32.05l-.29,0a3.21,3.21,0,0,1-1.6-.32,6.84,6.84,0,0,1-1.18-.71,16.48,16.48,0,0,1-1.9-1.71C62.94,43.65,61,41,58.75,38.54c-1.13-1.26-2.19-2.62-3.34-3.69a6.92,6.92,0,0,0-1.87-1.26A7.55,7.55,0,0,0,51.32,33a3.93,3.93,0,0,0-.59-.06c-.2,0-.39,0-.6,0l-.65,0h-.61a13.73,13.73,0,0,0-2.43.22,6.52,6.52,0,0,0-2.15.79,8.91,8.91,0,0,0-1.83,1.53c-.58.6-1.15,1.27-1.73,1.94l-1.76,2c-1.15,1.33-2.27,2.71-3.43,4.08a32.4,32.4,0,0,1-3.81,4,8.77,8.77,0,0,1-1.24.86,4.07,4.07,0,0,1-.76.34,3.74,3.74,0,0,1-.88.17s-.18,0-.16,0h-.1l-.21,0c-.13,0-.28,0-.4,0l-.72-.14c-.45-.12-.91-.23-1.35-.37-1.76-.52-3.45-1.16-5.13-1.81s-3.34-1.35-5-2.07c-.83-.36-1.64-.73-2.46-1.12l-1.23-.6-.59-.31-.31-.17L10.9,42a7.18,7.18,0,0,1-2.18-2,6.14,6.14,0,0,1-1.05-2.8,9.8,9.8,0,0,1-.06-1.41V34.42c0-.88,0-1.76,0-2.63,0-1.75,0-3.48,0-5.21s-.14-3.44,0-5.2A14.16,14.16,0,0,1,8.9,16.24,11.53,11.53,0,0,1,10.3,14a12.38,12.38,0,0,1,1.85-1.84,17.63,17.63,0,0,1,4.37-2.53,32.29,32.29,0,0,1,4.65-1.45l1.15-.29,1.16-.26c.76-.16,1.52-.34,2.29-.47A129.14,129.14,0,0,1,43.05,5.09C44.39,5,45.71,5,47,4.93s2.56,0,3.79,0c2.46.07,4.78.2,7,.36s4.23.37,6.11.59,3.61.45,5.16.7c3.11.47,5.53,1,7.18,1.39l2.5.64h0l.64.19c.42.11,1.05.32,1.85.61a23.75,23.75,0,0,1,2.89,1.31,14.54,14.54,0,0,1,3.44,2.63A11.59,11.59,0,0,1,90.21,18a20.17,20.17,0,0,1,.61,6.25C90.79,25.4,90.75,26.49,90.77,27.65Zm4.12,4.66c0,.56,0,1.12,0,1.66,0,1.08-.07,2.09-.12,3-.1,1.72-.23,2.88-.23,2.88s-.14-1.16-.24-2.88c-.05-.86-.09-1.87-.12-3,0-.54,0-1.1,0-1.66s0-1.15,0-1.72,0-1.15,0-1.72,0-1.12,0-1.66c0-1.08.07-2.09.13-2.95.09-1.73.23-2.88.23-2.88s.13,1.15.23,2.88c0,.86.09,1.87.12,2.95,0,.54,0,1.09,0,1.66s0,1.14,0,1.72S94.89,31.74,94.89,32.31Z"/><path d="M82.42,32.88c-.8.58-3.34,2.66-3.34,2.66a1.68,1.68,0,0,1-1-1c-.8-2.81-2-3-3-3.66a18.17,18.17,0,0,1-6-7.5c-.8-2.41-1.76-3.2-3.45-1.37-1.94,2.1-6.51,6.75-6.51,6.75a4.3,4.3,0,0,1-1.4-1.27c-1.5-3.38-5.25-4.24-7.17-7s-3.52-5.76-5.6-4-7.58,8.62-8.62,11a5.11,5.11,0,0,1-1.28,1.86,7.92,7.92,0,0,1-1.32-.91c-1.28-1.13-2-2.89-3.57-2.62s-4.33,3.48-6.89,6.43a43.63,43.63,0,0,1-3.2,3.48s-1.12-1-2.73-2.45-2.58,1.25-4.7,3.58a5.73,5.73,0,0,0,2.22,1.83c.36.19.81.4,1.33.64.61-.13,1.22-.28,1.81-.46a22.29,22.29,0,0,1-2.83-.33,2.07,2.07,0,0,1,.15-.34l.91-.49a.23.23,0,0,0,.12-.09c.06-.11,0-.29-.05-.4a1.18,1.18,0,0,1-.07-.45c0-.24.18-.45.22-.68a3.39,3.39,0,0,0,0-.71l-1-.22a14.53,14.53,0,0,1,1.85-.41l-.88-.64c.08-.28.24-.44.58-.3.49.19,1,.9,1.39,1.23l1.44,1.27a1.94,1.94,0,0,1,.61.74A1.19,1.19,0,0,1,20.2,38a3.55,3.55,0,0,1-2.34,1.18,7.39,7.39,0,0,1-1.56,0C20.18,41,27.65,44,29.68,44c1,0,2.11-.92,3.3-2.25.09-.09.17-.19.26-.29.43-.49.87-1,1.33-1.6l1.12-1.4c.39-.47.78-.95,1.18-1.41s.82-.93,1.24-1.37c2.93-3,5.13-5,9.07-5.52L48.25,29c0-.25.06-.51.09-.76A5.07,5.07,0,0,0,48,26.18c-.19-.57-.43-1.13-.67-1.69.47-.31.89-.54,1.53-.9-.41.12-1.66-.84-2.44-1.22l.12-.68a.61.61,0,0,0,0-.3.7.7,0,0,0-.2-.26l-.48-.47a3.62,3.62,0,0,1,.81-.93,2.28,2.28,0,0,0-.78-.22c0-.32.09-.64.14-1a8.24,8.24,0,0,0-1.56-.46,9.34,9.34,0,0,0,1.67-.92,1,1,0,0,1,.21-.63c.63-.61,1.61,1.35,1.8,1.73,1,1.86,2,3.83,3.94,5A15,15,0,0,1,55,25.14c1,1,1.34,2.25,2.76,3.37.26.21.58.32.62.61s-.07.35-.28.51A10.92,10.92,0,0,1,54.42,31c2.19.94,3.89,2.55,5.94,4.69.43.44.84.9,1.24,1.37s.8.94,1.19,1.41.75,1,1.12,1.4l.81,1c.26.31.52.62.78.9C66.69,43.06,67.78,44,68.8,44c2,0,9.52-3,13.4-4.78q-.39,0-.75.12l.12-.28c.43-.19.87-.34,1.31-.52.06,0-.07-.36-.09-.41a1.77,1.77,0,0,0-.18-.45.84.84,0,0,1-.14-.39,2.07,2.07,0,0,1,.08-.42,5.85,5.85,0,0,0,.09-.92v0a3.35,3.35,0,0,0-1.2.06c.27-.2.56-.39.85-.57s.65-.39,1-.57a.82.82,0,0,0-.16-.22c-.13-.1-.26-.3-.41-.44v0c.08-.72.32-.6.65,0l1.87,3.29a5.76,5.76,0,0,0,.42-.45C84.1,34.48,83.06,32.43,82.42,32.88ZM29.61,30.83a4.05,4.05,0,0,0,.78-1,10.76,10.76,0,0,1-1.51.38,17.35,17.35,0,0,1,2.74-1.72,12.29,12.29,0,0,0-.88-1c-.07-.27-.28-.64,0-.82.67.56,1.16,1.26,1.9,1.79a9.27,9.27,0,0,0,1.2.75,8.16,8.16,0,0,1,1.23.55c.28.25.06.66-.22.92s-.63.53-.56.87.42.49.52.78a1,1,0,0,1-.22.8l-1.32,2.19a2.78,2.78,0,0,1-.88,1,3.2,3.2,0,0,1-1.9.34l-.82-.06a5.47,5.47,0,0,1,1.15-1c-.58-.06-1.17-.11-1.75-.13l-.48,0c.12-.51.31-1,.47-1.51l.12-.44L30.39,33C30.25,33.09,30,31.45,29.61,30.83ZM67,25.21a5,5,0,0,1-.22-1.55,5.24,5.24,0,0,1,.82-.81,6.92,6.92,0,0,1-.61-.6c.08-.22.21-.48.53-.43s.46.75.56,1a31.46,31.46,0,0,0,2.75,4.66,14.66,14.66,0,0,0,3.19,3.4,9.47,9.47,0,0,1,2.71,2.26c.48.78.53,1.73,1.2,2.4.34.34.86.65.82,1.1s-.62.7-1.14.81a6.49,6.49,0,0,1-1.32.13,5.48,5.48,0,0,1,1.33-.71,13.2,13.2,0,0,0-3.82.21,6.29,6.29,0,0,1-.7-.32c.71-.48.91-1.33,1.83-1.88-.46.14-.93.27-1.39.38s-1,.19-1.44.33-.83.28-1.27.39a12.38,12.38,0,0,1-1.4.28,11.76,11.76,0,0,1-1.45.09,6.77,6.77,0,0,1,1.44-.88h-.11a2.91,2.91,0,0,1-1.14-.06.75.75,0,0,1-.55-.88A1.52,1.52,0,0,1,68,34c.14-.18.27-.37.41-.56a2.86,2.86,0,0,0,.29-.42c.06-.12.14-.33,0-.45a1.43,1.43,0,0,0-.62-.54,6.92,6.92,0,0,1-1.22-.91c-.2-.19-.11-.51-.06-.73a2.93,2.93,0,0,1,.35-.79,7.18,7.18,0,0,0,.59-1,1.91,1.91,0,0,0,.13-.82.8.8,0,0,0-.3-.69,3.9,3.9,0,0,0-1.37-.41l-.29,0,1.34-.7A5.66,5.66,0,0,1,67,25.21Z"/><path d="M53.31,30.42l-.28.06.17.05A1.14,1.14,0,0,1,53.31,30.42Z"/></g></g></svg>